<?xml version="1.0" encoding="utf-8"?>
<svg xmlns="http://www.w3.org/2000/svg">
<symbol id="test_svg" viewBox="0 0 75 75"><path fill-rule="evenodd" d="M74.934 37.465c0 20.695-16.774 37.469-37.47 37.469C16.775 74.934 0 58.16 0 37.464 0 16.775 16.773 0 37.465 0 58.16 0 74.934 16.773 74.934 37.465m0 0"/><path fill-rule="evenodd" d="M68.688 37.465c0 17.246-13.977 31.222-31.223 31.222-17.242 0-31.219-13.976-31.219-31.222 0-17.242 13.977-31.219 31.219-31.219 17.246 0 31.222 13.977 31.222 31.219m0 0"/><path fill-rule="evenodd" d="M18.688 18.258v6.808H32.82v31.61h9.293v-31.61h14.133v-6.808Zm0 0"/>
</symbol></svg>