<svg xmlns="http://www.w3.org/2000/svg" viewBox="0 0 70 70"><path d="M31.29.258c-4.247.324-7.165 1.117-10.99 2.914-8.702 4.11-15.425 11.715-18.433 20.84C.582 27.882.164 30.66.164 35.117c.023 8.074 2.168 14.7 6.649 20.625 1.562 2.055 5.972 6.488 7.91 7.934 3.382 2.566 8.937 4.972 13.37 5.789 1.563.3 3.384.394 6.907.394 6.93 0 10.012-.652 15.285-3.218 9.82-4.786 17.078-14.516 19.156-25.692.606-3.219.606-8.937 0-12.133-1.261-6.812-4.457-12.972-9.336-18.011-2.683-2.801-5.109-4.692-8.304-6.489-4.48-2.52-8.262-3.64-13.63-4.082-3.265-.257-3.612-.257-6.882.024m9.496 2.89c10.293 2.008 19.297 8.938 23.637 18.204.98 2.074 1.867 5.203 2.336 8.164.465 2.918.418 9.847-.094 12.203-1.984 9.289-8.426 17.71-16.988 22.191-2.778 1.469-5.11 2.215-9.028 2.942-9.847 1.82-18.597-.493-26.437-7.024C8.703 55.23 4.715 48.418 3.1 40.832c-.558-2.707-.558-8.633 0-11.504 1.286-6.414 4.157-11.969 8.637-16.637 2.797-2.937 5.48-4.921 8.91-6.625 3.829-1.89 6.93-2.824 11.086-3.359 1.61-.187 7.141.07 9.051.441"/><path d="M12.367 23.8v4.9h16.098v28.468h12.137l.046-14.188.067-14.164 8.472-.07 8.446-.047v-9.8H12.367Zm0 0"/></svg>